<?xml version="1.0" standalone="no"?>
<!DOCTYPE svg PUBLIC "-//W3C//DTD SVG 20010904//EN"
 "http://www.w3.org/TR/2001/REC-SVG-20010904/DTD/svg10.dtd">
<svg version="1.0" xmlns="http://www.w3.org/2000/svg"
 width="65.000000pt" height="65.000000pt" viewBox="0 0 65.000000 65.000000"
 preserveAspectRatio="xMidYMid meet">
<metadata>
Created by potrace 1.15, written by Peter Selinger 2001-2017
</metadata>
<g transform="translate(0.000000,65.000000) scale(0.100000,-0.100000)"
fill="#000000" stroke="none">
<path fill="#8bc34a" d="M451 634 c-101 -27 -138 -60 -201 -176 l-42 -78 -58 0 c-56 0 -58 -1
-104 -50 -25 -27 -46 -54 -46 -59 0 -15 32 -29 81 -37 36 -5 54 -17 96 -59 42
-43 53 -63 64 -110 7 -31 19 -59 27 -62 8 -3 32 13 58 38 42 41 44 46 44 100
l0 58 91 48 c55 29 105 63 124 86 42 49 65 132 65 235 l0 82 -72 -1 c-40 0
-97 -7 -127 -15z m148 -107 c-12 -131 -43 -170 -188 -248 l-81 -43 0 -61 c0
-48 -4 -66 -19 -79 -19 -17 -20 -17 -29 18 -6 20 -34 62 -62 95 -45 52 -58 61
-96 67 l-43 6 17 24 c15 20 25 23 82 24 l66 0 36 74 c72 145 139 192 278 195
l46 1 -7 -73z"/>
<path fill="#8bc34a" d="M390 510 c-13 -13 -20 -33 -20 -60 0 -27 7 -47 20 -60 13 -13 33 -20
60 -20 27 0 47 7 60 20 13 13 20 33 20 60 0 27 -7 47 -20 60 -13 13 -33 20
-60 20 -27 0 -47 -7 -60 -20z"/>
<path fill="#8bc34a" d="M68 178 c-41 -24 -56 -52 -60 -118 l-3 -45 49 -3 c27 -2 61 2 76 8
32 13 66 70 57 94 -10 25 -35 19 -51 -13 -25 -47 -76 -58 -76 -16 0 19 10 31
35 46 37 22 44 39 22 57 -9 8 -23 5 -49 -10z"/>
</g>
</svg>
